<?xml version="1.0" encoding="utf-8"?>
<!-- Svg Vector Icons : http://www.onlinewebfonts.com/icon -->
<!DOCTYPE svg PUBLIC "-//W3C//DTD SVG 1.1//EN" "http://www.w3.org/Graphics/SVG/1.1/DTD/svg11.dtd">
<svg version="1.1" xmlns="http://www.w3.org/2000/svg" xmlns:xlink="http://www.w3.org/1999/xlink" x="0px" y="0px" viewBox="0 0 1000 1000" enable-background="new 0 0 1000 1000" xml:space="preserve">
<metadata> Svg Vector Icons : http://www.onlinewebfonts.com/icon </metadata>
<g><path d="M970.8,3.5H591.3v115.1c0,0,148.2,0,209.2,0c-39.9,38.4-71.6,65.5-129.7,121.4c-68.4-48.7-151.9-77.6-242.2-77.6C197.7,162.3,10,349.4,10,579.4c0,230,187.7,417.1,418.5,417.1c230.7,0,418.5-187.1,418.5-417.1c0-98.8-34.8-189.6-92.7-261.1c58.8-57.9,87.2-84.5,125.1-121.8c0,57.4,0,192.9,0,192.9H990V3.5H970.8z M428.5,881.5c-167.1,0-303-135.5-303-302c0-166.5,135.9-302,303-302c167.1,0,303,135.5,303,302C731.5,746,595.5,881.5,428.5,881.5z"/></g>
</svg>