<?xml version="1.0" encoding="utf-8"?>
<!-- Svg Vector Icons : http://www.onlinewebfonts.com/icon -->
<!DOCTYPE svg PUBLIC "-//W3C//DTD SVG 1.1//EN" "http://www.w3.org/Graphics/SVG/1.1/DTD/svg11.dtd">
<svg version="1.1" xmlns="http://www.w3.org/2000/svg" xmlns:xlink="http://www.w3.org/1999/xlink" x="0px" y="0px" viewBox="0 0 1000 1000" enable-background="new 0 0 1000 1000" xml:space="preserve">
<metadata> Svg Vector Icons : http://www.onlinewebfonts.com/icon </metadata>
<g><path d="M500,18c-27.4,0-52.4,15.7-64.1,40.2L325.1,291.9l-255,38.5c-26.2,3.9-48,22.1-56.4,46.9c-8.4,24.9-2.1,52.3,16.5,71L217,637.9l-43.3,262.8c-4.4,26.5,6.9,53,29,68.6c12.2,8.4,26.5,12.8,40.8,12.8c11.7,0,23.5-2.9,34.2-8.7L500,851.7l222.4,121.6c10.7,5.8,22.5,8.7,34.2,8.7c14.3,0,28.6-4.3,40.8-12.8c22.1-15.5,33.4-42.1,29-68.6L783,637.9l186.9-189.5c18.5-18.7,24.9-46.1,16.4-71c-8.5-24.8-30.2-43-56.5-46.9l-255-38.5L564,58.2C552.4,33.7,527.4,18,500,18L500,18L500,18L500,18z"/></g>
</svg>