<?xml version="1.0" encoding="utf-8"?>
<!-- Svg Vector Icons : http://www.onlinewebfonts.com/icon -->
<!DOCTYPE svg PUBLIC "-//W3C//DTD SVG 1.1//EN" "http://www.w3.org/Graphics/SVG/1.1/DTD/svg11.dtd">
<svg version="1.1" xmlns="http://www.w3.org/2000/svg" xmlns:xlink="http://www.w3.org/1999/xlink" x="0px" y="0px" viewBox="0 0 1000 1000" enable-background="new 0 0 1000 1000" xml:space="preserve">
<metadata> Svg Vector Icons : http://www.onlinewebfonts.com/icon </metadata>
<g><path d="M867.5,377.5C867.5,174.5,703,10,500,10c-203,0-367.5,164.5-367.5,367.5c0,189.2,142.9,344.9,326.7,365.2v63.5H336.7c-22.6,0-40.8,18.3-40.8,40.8s18.3,40.8,40.8,40.8h122.5v61.2c0,22.6,18.3,40.8,40.8,40.8c22.6,0,40.8-18.3,40.8-40.8v-61.2h122.5c22.6,0,40.8-18.3,40.8-40.8s-18.3-40.8-40.8-40.8H540.8v-63.5C724.6,722.4,867.5,566.7,867.5,377.5z M214.2,377.5c0-157.9,128-285.8,285.8-285.8c157.9,0,285.8,128,285.8,285.8c0,157.9-128,285.8-285.8,285.8C342.1,663.3,214.2,535.4,214.2,377.5z"/></g>
</svg>