<?xml version="1.0" encoding="utf-8"?>
<!-- Svg Vector Icons : http://www.onlinewebfonts.com/icon -->
<!DOCTYPE svg PUBLIC "-//W3C//DTD SVG 1.1//EN" "http://www.w3.org/Graphics/SVG/1.1/DTD/svg11.dtd">
<svg version="1.1" xmlns="http://www.w3.org/2000/svg" xmlns:xlink="http://www.w3.org/1999/xlink" x="0px" y="0px" viewBox="0 0 1000 1000" enable-background="new 0 0 1000 1000" xml:space="preserve">
<metadata> Svg Vector Icons : http://www.onlinewebfonts.com/icon </metadata>
<g><path d="M279.2,408.3c-18.5,11.8-30.8,31.5-30.8,48.9c0,0,0,1.7,0,6.6v18.5l0,0v443.9h1.3l0,0c6.1,30.1,32.8,52.8,64.7,52.8H871c36.5,0,66-29.3,66-66.1c0-36.5-29.6-66.1-66-66.1H665.6H911c43.6,0,79-35.6,79-79.3c0-43.8-35.6-79.3-79-79.3H685.6H911c43.6,0,79-35.6,79-79.3c0-43.8-35.6-79.3-79-79.3H662.5h202.3c39.9,0,72.2-32.7,72.2-72.2V470c0-39.9-32.5-73.6-72.3-75.2c0,0-119.7-5.5-247.7-8.1c12.1-45.3,35.7-155,15.4-266.3C605.9-25,447,1.4,447,120.3C433.8,226,447,226,420.5,292.1c-20.7,51.7-95.8,93.6-127.5,109.5c-4.4,1.6-8.5,3.6-12.5,6c-1.2,0.5-1.8,0.8-1.8,0.8H279.2z M67.6,424.2c-31.8,0-57.6,25.6-57.6,57.6v386.8c0,31.8,25.8,57.6,57.6,57.6h127.8v-502H67.6z"/></g>
</svg>