<?xml version="1.0" encoding="utf-8"?>
<!-- Svg Vector Icons : http://www.onlinewebfonts.com/icon -->
<!DOCTYPE svg PUBLIC "-//W3C//DTD SVG 1.1//EN" "http://www.w3.org/Graphics/SVG/1.1/DTD/svg11.dtd">
<svg version="1.1" xmlns="http://www.w3.org/2000/svg" xmlns:xlink="http://www.w3.org/1999/xlink" x="0px" y="0px" viewBox="0 0 1000 1000" enable-background="new 0 0 1000 1000" xml:space="preserve">
<metadata> Svg Vector Icons : http://www.onlinewebfonts.com/icon </metadata>
<g><path d="M961.1,284.8c-21,12.8-23.1,40.7,10.5,74.9c33.6,34.2,16.8,77-14.7,92c-31.5,15-42,39,0,55.7c37.8,15,37.8,85.6-2.1,132.7c-36.2,42.8-287.8,21.4-287.8,21.4s2.1,2.1,2.1,141.3c0,139.1-39.9,173.4-107.1,171.2c-67.2-2.1-46.2-42.8-86.1-207.6c-39.9-164.8-199.6-278.2-199.6-278.2V111.5c27.3-38.5,86.1-51.4,105-59.9c18.9-8.6,212.2-25.7,212.2-25.7s315.1,23.6,329.8,68.5c14.7,44.9-21.6,65.9,23.1,83.5C1001,199.2,982.1,272,961.1,284.8L961.1,284.8z M10,494.7V124.9c0-37.2,29.6-67.3,66.1-67.3h130.8v504.5H76.1C39.6,562.1,10,531.9,10,494.7L10,494.7z"/></g>
</svg>