<?xml version="1.0" standalone="no"?>
<!DOCTYPE svg PUBLIC "-//W3C//DTD SVG 20010904//EN"
 "http://www.w3.org/TR/2001/REC-SVG-20010904/DTD/svg10.dtd">
<svg version="1.0" xmlns="http://www.w3.org/2000/svg"
 width="128.000000pt" height="128.000000pt" viewBox="0 0 128.000000 128.000000"
 preserveAspectRatio="xMidYMid meet">

<g transform="translate(0.000000,128.000000) scale(0.100000,-0.100000)"
fill="#000000" stroke="none">
<path d="M590 1171 c-67 -22 -548 -209 -572 -222 -27 -14 -26 -149 1 -173 27
-24 586 -256 619 -256 15 0 55 13 89 29 34 16 162 73 284 126 123 54 234 104
246 112 21 14 23 23 23 93 0 74 -1 77 -27 89 -94 43 -541 212 -572 216 -21 3
-59 -3 -91 -14z m36 -73 c22 -8 43 -8 72 -1 l41 11 -5 -27 c-5 -24 -1 -29 33
-43 l38 -16 -45 -1 c-52 -1 -61 -7 -77 -41 l-11 -25 -18 31 c-16 28 -26 33
-79 41 l-60 9 43 14 c42 13 51 23 32 35 -11 7 -14 25 -3 25 4 0 21 -5 39 -12z
m397 -123 c42 -16 77 -32 77 -36 0 -3 -40 -21 -89 -41 l-88 -35 -82 31 c-44
17 -81 33 -81 37 0 7 171 79 181 76 3 -1 40 -15 82 -32z m-515 -12 c34 -26 34
-41 -1 -67 -24 -18 -42 -21 -127 -21 -84 0 -103 3 -126 21 -32 23 -37 34 -25
52 28 45 225 56 279 15z m202 -163 c-22 -33 -44 -60 -47 -60 -15 0 -183 73
-183 80 0 6 180 36 238 39 l33 1 -41 -60z"/>
<path d="M1217 679 c-32 -16 -142 -66 -245 -111 -103 -44 -208 -91 -234 -104
-95 -48 -93 -48 -413 85 -159 67 -297 129 -307 138 -17 15 -18 13 -18 -49 0
-49 4 -69 18 -80 9 -9 75 -41 147 -71 72 -30 201 -84 287 -121 87 -36 168 -66
180 -66 13 0 48 11 78 24 210 90 480 210 521 233 l49 26 0 64 c0 34 -1 63 -2
63 -2 -1 -29 -14 -61 -31z"/>
<path d="M1255 486 c-11 -7 -120 -57 -243 -111 -123 -53 -251 -110 -285 -126
-34 -16 -75 -29 -90 -29 -31 0 -567 220 -609 251 l-28 20 0 -64 c0 -49 4 -68
18 -80 10 -9 148 -71 307 -138 320 -133 318 -133 413 -85 26 13 131 60 234
104 102 45 214 95 247 112 l61 30 0 65 c0 36 -1 65 -3 65 -1 0 -11 -6 -22 -14z"/>
</g>
</svg>
