<?xml version="1.0" encoding="utf-8"?>
<!-- Svg Vector Icons : http://www.onlinewebfonts.com/icon -->
<!DOCTYPE svg PUBLIC "-//W3C//DTD SVG 1.1//EN" "http://www.w3.org/Graphics/SVG/1.1/DTD/svg11.dtd">
<svg version="1.1" xmlns="http://www.w3.org/2000/svg" xmlns:xlink="http://www.w3.org/1999/xlink" x="0px" y="0px" viewBox="0 0 1000 1000" enable-background="new 0 0 1000 1000" xml:space="preserve">
<metadata> Svg Vector Icons : http://www.onlinewebfonts.com/icon </metadata>
<g><path d="M821.6,346.9c92.9,0,168.4-75.6,168.4-168.4C990,85.6,914.5,10,821.6,10c-92.9,0-168.4,75.6-168.4,168.4c0,8.2,0.8,16.2,1.9,24.2L300.9,338.8c-30.7-32.7-74.2-53.2-122.5-53.2C85.5,285.6,10,361.2,10,454.1s75.5,168.4,168.4,168.4c36.2,0,69.7-11.6,97.2-31.1l239.9,159.9c-9.9,21.4-15.6,45.1-15.6,70.2c0,92.9,75.5,168.4,168.4,168.4c92.9,0,168.4-75.6,168.4-168.4c0-92.9-75.6-168.4-168.4-168.4c-45.8,0-87.2,18.4-117.6,48.1L319,546.7c17.6-26.6,27.9-58.4,27.9-92.6c0-22.1-4.4-43.2-12.2-62.6l340-130.8C703.6,312,758.5,346.9,821.6,346.9z M178.4,561.3c-59.1,0-107.2-48.1-107.2-107.2c0-59.1,48.1-107.2,107.2-107.2S285.6,395,285.6,454.1C285.6,513.2,237.5,561.3,178.4,561.3z M668.4,714.4c59.1,0,107.2,48.1,107.2,107.2c0,59.1-48.1,107.2-107.2,107.2c-59.1,0-107.2-48.1-107.2-107.2C561.2,762.5,609.3,714.4,668.4,714.4z M821.6,71.3c59.1,0,107.2,48.1,107.2,107.2c0,59.1-48.1,107.2-107.2,107.2c-59.1,0-107.2-48.1-107.2-107.2C714.4,119.3,762.5,71.3,821.6,71.3z"/></g>
</svg>