<?xml version="1.0" encoding="utf-8"?>
<!-- Svg Vector Icons : http://www.onlinewebfonts.com/icon -->
<!DOCTYPE svg PUBLIC "-//W3C//DTD SVG 1.1//EN" "http://www.w3.org/Graphics/SVG/1.1/DTD/svg11.dtd">
<svg version="1.1" xmlns="http://www.w3.org/2000/svg" xmlns:xlink="http://www.w3.org/1999/xlink" x="0px" y="0px" viewBox="0 0 1000 1000" enable-background="new 0 0 1000 1000" xml:space="preserve">
<metadata> Svg Vector Icons : http://www.onlinewebfonts.com/icon </metadata>
<g><g><g><polygon points="635.5,548.8 636.5,548.8 633.7,374.4 605.3,368 605.3,367.5 594.6,365.6 580,362.3 580,363 576.1,362.2 632.6,539.7 "/><polygon points="453.8,413.6 476.9,337.7 500.4,411.4 542.6,543.4 621,543.4 562.5,359.8 549.1,317.7 542.8,297.9 483.1,316.4 462.6,310.1 462.6,310.1 411.8,294.3 405.7,313.8 391,360.9 334.1,542.5 414.1,544.6 "/><polygon points="355.8,369.4 333.9,374.4 331.7,508.9 377,364.1 355.8,369.1 "/><path d="M637.5,555.1l0.1,0.3H621l-78.4,0.1h-8.9l-2.7-8.4l-42.1-131.9c-3.7,0.9-7.2,2-11.3,2.2c-4.2,0.3-8-0.1-11.8-0.7l-39.9,131.4l-2.7,9l-9.4-0.2l-68.2-1.8h-268v64.9h39V990h31.7V620.1h209.9l0.5,45.9h-51.5v22.2h44.2V973H449V688.2h64.6V973h97.6V688.2h38.5v-22.2h-45.2l0.1-45.9H842V990h31.6V620.1h48.8v-64.9H637.5L637.5,555.1z"/><path d="M350,160.8c-1.7,5.6-3.4,11.2-4.4,17c-1.2,7.3-1.9,14.8-1.9,22.4c0,43.1,20,81.4,51.3,106.3l5-16l3.7-11.8l11.8,3.6l68,21.1l55.8-17.3l11.5-3.6l3.7,11.5l5.3,16.6c34.2-24.7,56.7-64.9,56.7-110.5c0-15-3.1-29.3-7.5-42.8l27.6-38.2l-49.6-17.5l9.7-50.7L536,68.4L508.2,10l-51.7,54l-40.1-46.4l-18.8,61.3l-64.3-21.1l24.2,54.2l-46.8,13.1L350,160.8z"/></g></g><g></g><g></g><g></g><g></g><g></g><g></g><g></g><g></g><g></g><g></g><g></g><g></g><g></g><g></g><g></g></g>
</svg>