<?xml version="1.0" encoding="utf-8"?>
<!-- Svg Vector Icons : http://www.onlinewebfonts.com/icon -->
<!DOCTYPE svg PUBLIC "-//W3C//DTD SVG 1.1//EN" "http://www.w3.org/Graphics/SVG/1.1/DTD/svg11.dtd">
<svg version="1.1" xmlns="http://www.w3.org/2000/svg" xmlns:xlink="http://www.w3.org/1999/xlink" x="0px" y="0px" viewBox="0 0 1000 1000" enable-background="new 0 0 1000 1000" xml:space="preserve">
<metadata> Svg Vector Icons : http://www.onlinewebfonts.com/icon </metadata>
<g><g transform="translate(0.000000,511.000000) scale(0.100000,-0.100000)"><path d="M4317.9,2917.5c-96.5-41.7-182.6-135.6-219.1-232.2c-18.3-47-28.7-391.3-28.7-946.9V867.3h208.7h208.7V1702v834.7h2504.1h2504.1V658.6v-1878.1H7865.4H6235.1v-208.7v-211.3l1705.9,7.9c1677.2,7.8,1708.5,7.8,1779,62.6c39.1,28.7,96.5,86.1,125.2,125.2c54.8,70.4,54.8,91.3,54.8,2102.4c0,2011.1,0,2032-54.8,2102.4c-28.7,39.1-86.1,96.5-125.2,125.2c-70.4,54.8-91.3,54.8-2697.1,60C4873.5,2951.4,4383.1,2946.2,4317.9,2917.5z"/><path d="M2189.4,2750.6c-485.2-161.7-790.4-665.2-701.7-1155.6c101.7-563.4,626-941.7,1186.9-853c336.5,49.6,628.6,271.3,777.3,586.9c75.7,161.7,83.5,200.8,83.5,425.2c-2.6,320.8-65.2,487.8-266.1,704.3c-206.1,224.3-404.3,315.6-704.3,328.7C2390.2,2794.9,2301.5,2787.1,2189.4,2750.6z"/><path d="M7187.2,525.6c-529.5-417.4-975.5-766.9-986-779.9c-13-10.4,7.8-80.9,46.9-156.5l67.8-135.6l109.6,91.3c60,46.9,498.2,391.3,970.4,761.7c474.7,370.4,871.2,683.4,884.3,693.9c23.5,20.9-80.9,284.3-112.2,284.3C8160.2,1284.6,7719.3,942.9,7187.2,525.6z"/><path d="M1260.8,423.8c-563.4-60-959.9-326.1-1108.6-748.6C102.6-465.7,100-536.1,100-1459.5c0-1121.6-2.6-1103.4,213.9-1215.5c200.9-104.3,420-52.2,558.2,135.6c52.2,67.8,54.8,109.6,62.6,892.1l7.8,819.1h206.1h208.7v-913v-913H2505h1147.7v913v913h208.7h208.7v-433c0-399.1,5.2-440.8,57.4-537.3c101.7-180,323.4-268.7,493-195.6c49.6,20.9,406.9,250.4,793,511.3c600,401.7,712.1,487.8,764.3,581.7c73.1,135.6,73.1,213.9-2.6,360c-78.3,156.5-198.2,234.8-362.6,234.8c-151.3,0-224.3-36.5-600-297.4l-279.1-195.6l-13,83.5c-7.8,47-20.9,138.2-28.7,206.1c-36.5,281.7-289.5,613-579.1,761.7c-250.4,125.2-485.2,174.8-920.8,190.4l-404.3,15.6L2755.4,74.3C2630.2-134.4,2518-306.5,2505-306.5c-10.4,0-122.6,169.5-250.4,378.2l-232.2,378.2l-286.9-2.6C1579,444.7,1362.5,434.3,1260.8,423.8z"/></g></g>
</svg>